<svg width="236" height="242" viewBox="0 0 236 242" fill="none" xmlns="http://www.w3.org/2000/svg">
<rect width="236" height="242" fill="#CAEDFF"/>
<path d="M83.0781 177L56.2031 93.7969H71.75L91.4375 156.531L109.797 93.7969H125.5L143.859 156.531L163.547 93.7969H179.094L152.219 177H136.203L117.609 115.906L99.0938 177H83.0781Z" fill="#0077B6"/>
<path d="M56 13H59C72.2548 13 83 23.7452 83 37V177H80C66.7452 177 56 166.255 56 153V13Z" fill="#0077B6"/>
<path d="M22.5586 197.195V214H20.1562V197.195H22.5586ZM37.6875 214H35.3789V203.828H28.9453V214H26.6484V201.52H28.9453V203.723C28.9609 203.418 29.0312 203.133 29.1562 202.867C29.2812 202.594 29.4453 202.359 29.6484 202.164C29.8594 201.961 30.1016 201.805 30.375 201.695C30.6484 201.578 30.9414 201.52 31.2539 201.52H35.3789C35.6992 201.52 36 201.582 36.2812 201.707C36.5625 201.824 36.8047 201.988 37.0078 202.199C37.2188 202.402 37.3828 202.645 37.5 202.926C37.625 203.207 37.6875 203.508 37.6875 203.828V214ZM52.5703 214H50.2617V203.828H43.8281V214H41.5312V201.52H43.8281V203.723C43.8438 203.418 43.9141 203.133 44.0391 202.867C44.1641 202.594 44.3281 202.359 44.5312 202.164C44.7422 201.961 44.9844 201.805 45.2578 201.695C45.5312 201.578 45.8242 201.52 46.1367 201.52H50.2617C50.582 201.52 50.8828 201.582 51.1641 201.707C51.4453 201.824 51.6875 201.988 51.8906 202.199C52.1016 202.402 52.2656 202.645 52.3828 202.926C52.5078 203.207 52.5703 203.508 52.5703 203.828V214ZM67.207 211.691C67.207 212.012 67.1445 212.312 67.0195 212.594C66.9023 212.875 66.7383 213.121 66.5273 213.332C66.3242 213.535 66.082 213.699 65.8008 213.824C65.5273 213.941 65.2305 214 64.9102 214H58.7109C58.3984 214 58.1016 213.941 57.8203 213.824C57.5391 213.699 57.293 213.535 57.082 213.332C56.8789 213.121 56.7148 212.875 56.5898 212.594C56.4727 212.312 56.4141 212.012 56.4141 211.691V203.828C56.4141 203.508 56.4727 203.207 56.5898 202.926C56.7148 202.645 56.8789 202.402 57.082 202.199C57.293 201.988 57.5391 201.824 57.8203 201.707C58.1016 201.582 58.3984 201.52 58.7109 201.52H64.9102C65.2305 201.52 65.5273 201.582 65.8008 201.707C66.082 201.824 66.3242 201.988 66.5273 202.199C66.7383 202.402 66.9023 202.645 67.0195 202.926C67.1445 203.207 67.207 203.508 67.207 203.828V211.691ZM58.7109 203.828V211.691H64.9102V203.828H58.7109ZM74.6133 214L69.6211 201.52H72.0234L75.8086 211.234L79.6055 201.52H82.0078L77.0156 214H74.6133ZM84.4219 208.551C84.4219 208.23 84.4805 207.934 84.5977 207.66C84.7227 207.379 84.8867 207.133 85.0898 206.922C85.3008 206.711 85.5469 206.547 85.8281 206.43C86.1094 206.305 86.4062 206.242 86.7188 206.242H92.6719V203.828H85.1367V201.52H92.6719C92.9922 201.52 93.293 201.582 93.5742 201.707C93.8555 201.824 94.0977 201.988 94.3008 202.199C94.5117 202.402 94.6758 202.645 94.793 202.926C94.918 203.207 94.9805 203.508 94.9805 203.828V214H92.6719V211.891C92.6484 212.18 92.5703 212.453 92.4375 212.711C92.3047 212.969 92.1328 213.195 91.9219 213.391C91.7188 213.578 91.4844 213.727 91.2188 213.836C90.9531 213.945 90.6719 214 90.375 214H86.7188C86.4062 214 86.1094 213.941 85.8281 213.824C85.5469 213.699 85.3008 213.535 85.0898 213.332C84.8867 213.121 84.7227 212.875 84.5977 212.594C84.4805 212.312 84.4219 212.012 84.4219 211.691V208.551ZM86.7188 211.691H92.6719V208.551H86.7188V211.691ZM98.1094 201.52H101.156V197.676H103.465V201.52H107.566V203.828H103.465V211.691H107.566V214H103.465C103.152 214 102.855 213.941 102.574 213.824C102.293 213.699 102.047 213.535 101.836 213.332C101.625 213.121 101.457 212.875 101.332 212.594C101.215 212.312 101.156 212.012 101.156 211.691V203.828H98.1094V201.52ZM113.848 201.52V214H111.539V201.52H113.848ZM111.422 196.715H113.965V199.117H111.422V196.715ZM128.613 211.691C128.613 212.012 128.551 212.312 128.426 212.594C128.309 212.875 128.145 213.121 127.934 213.332C127.73 213.535 127.488 213.699 127.207 213.824C126.934 213.941 126.637 214 126.316 214H120.117C119.805 214 119.508 213.941 119.227 213.824C118.945 213.699 118.699 213.535 118.488 213.332C118.285 213.121 118.121 212.875 117.996 212.594C117.879 212.312 117.82 212.012 117.82 211.691V203.828C117.82 203.508 117.879 203.207 117.996 202.926C118.121 202.645 118.285 202.402 118.488 202.199C118.699 201.988 118.945 201.824 119.227 201.707C119.508 201.582 119.805 201.52 120.117 201.52H126.316C126.637 201.52 126.934 201.582 127.207 201.707C127.488 201.824 127.73 201.988 127.934 202.199C128.145 202.402 128.309 202.645 128.426 202.926C128.551 203.207 128.613 203.508 128.613 203.828V211.691ZM120.117 203.828V211.691H126.316V203.828H120.117ZM143.508 214H141.199V203.828H134.766V214H132.469V201.52H134.766V203.723C134.781 203.418 134.852 203.133 134.977 202.867C135.102 202.594 135.266 202.359 135.469 202.164C135.68 201.961 135.922 201.805 136.195 201.695C136.469 201.578 136.762 201.52 137.074 201.52H141.199C141.52 201.52 141.82 201.582 142.102 201.707C142.383 201.824 142.625 201.988 142.828 202.199C143.039 202.402 143.203 202.645 143.32 202.926C143.445 203.207 143.508 203.508 143.508 203.828V214ZM158.145 214L153.34 197.195H155.742L159.469 210.566L163.184 197.195H165.586L169.301 210.566L173.027 197.195H175.43L170.625 214H167.988L164.391 201.402L160.781 214H158.145ZM177.352 208.551C177.352 208.23 177.41 207.934 177.527 207.66C177.652 207.379 177.816 207.133 178.02 206.922C178.23 206.711 178.477 206.547 178.758 206.43C179.039 206.305 179.336 206.242 179.648 206.242H185.602V203.828H178.066V201.52H185.602C185.922 201.52 186.223 201.582 186.504 201.707C186.785 201.824 187.027 201.988 187.23 202.199C187.441 202.402 187.605 202.645 187.723 202.926C187.848 203.207 187.91 203.508 187.91 203.828V214H185.602V211.891C185.578 212.18 185.5 212.453 185.367 212.711C185.234 212.969 185.062 213.195 184.852 213.391C184.648 213.578 184.414 213.727 184.148 213.836C183.883 213.945 183.602 214 183.305 214H179.648C179.336 214 179.039 213.941 178.758 213.824C178.477 213.699 178.23 213.535 178.02 213.332C177.816 213.121 177.652 212.875 177.527 212.594C177.41 212.312 177.352 212.012 177.352 211.691V208.551ZM179.648 211.691H185.602V208.551H179.648V211.691ZM195.316 214L190.324 201.52H192.727L196.512 211.234L200.309 201.52H202.711L197.719 214H195.316ZM215.684 208.938H207.422V211.691H215.684V214H207.422C207.109 214 206.812 213.941 206.531 213.824C206.25 213.699 206.004 213.535 205.793 213.332C205.59 213.121 205.426 212.875 205.301 212.594C205.184 212.312 205.125 212.012 205.125 211.691V203.828C205.125 203.508 205.184 203.207 205.301 202.926C205.426 202.645 205.59 202.402 205.793 202.199C206.004 201.988 206.25 201.824 206.531 201.707C206.812 201.582 207.109 201.52 207.422 201.52H213.375C213.695 201.52 213.996 201.582 214.277 201.707C214.559 201.824 214.801 201.988 215.004 202.199C215.215 202.402 215.379 202.645 215.496 202.926C215.621 203.207 215.684 203.508 215.684 203.828V208.938ZM207.422 203.828V206.629H213.375V203.828H207.422Z" fill="#0077B6"/>
</svg>
